<svg width="568" height="449" viewBox="0 0 568 449" fill="none" xmlns="http://www.w3.org/2000/svg">
    <rect x="1" y="21" width="566" height="427" rx="20" fill="#F8FAFC" />
    <rect x="1" y="21" width="566" height="427" rx="20" stroke="#E2E8F0" stroke-width="2" />
    <path
        d="M194 197.5C194 239.986 166.927 274 134 274C101.073 274 74 239.986 74 197.5C74 155.014 101.073 121 134 121C166.927 121 194 155.014 194 197.5Z"
        fill="white" stroke="#E2E8F0" stroke-width="2" />
    <path
        d="M494.632 201.277C485.51 215.26 468.918 222.615 449.292 223.059C429.672 223.502 407.127 217.024 386.343 203.465C365.559 189.906 350.546 171.882 343.046 153.746C335.545 135.604 335.592 117.456 344.714 103.473C353.836 89.4906 370.427 82.1354 390.053 81.6919C409.674 81.2485 432.219 87.727 453.003 101.286C473.786 114.845 488.799 132.869 496.299 151.005C503.801 169.146 503.754 187.295 494.632 201.277Z"
        fill="white" stroke="#E2E8F0" stroke-width="2" />
    <path
        d="M427.72 363.009C422.519 382.416 406.034 396.955 383.353 404.681C360.68 412.404 331.925 413.268 302.481 405.378C273.038 397.489 248.567 382.364 232.793 364.339C217.013 346.307 210.006 325.473 215.207 306.066C220.407 286.658 236.892 272.119 259.573 264.393C282.246 256.67 311.001 255.807 340.445 263.696C369.889 271.585 394.359 286.711 410.133 304.736C425.913 322.767 432.92 343.601 427.72 363.009Z"
        fill="white" stroke="#E2E8F0" stroke-width="2" />
    <path
        d="M31.8555 82.4453V76.8008H34.8633V82.4453H43.4766V85.043H34.8633V89.8867H45.1953V92.5234H34.8633V96.8789H43.2812V107.348C43.2812 108.402 42.9688 109.145 42.3438 109.574C41.888 109.887 41.1784 110.043 40.2148 110.043C39.1992 110.043 38.0794 109.971 36.8555 109.828L36.3281 106.996C37.6432 107.204 38.7565 107.309 39.668 107.309C40.1628 107.309 40.4102 107.061 40.4102 106.566V99.4375H34.8633V114.789H31.8555V99.4375H26.5625V110.727H23.6914V96.8789H31.8555V92.5234H21.3281V89.8867H31.8555V85.043H26.3672C25.7292 86.3451 24.9805 87.5755 24.1211 88.7344L21.6406 87.1328C23.4375 84.8281 24.7982 81.8919 25.7227 78.3242L28.5742 78.8516C28.2617 80.0365 27.8906 81.2344 27.4609 82.4453H31.8555ZM46.5625 79.9453H49.5312V104.672H46.5625V79.9453ZM54.4727 77.9141H57.4805V110.844C57.4805 112.094 57.1289 112.986 56.4258 113.52C55.8268 114.001 54.8438 114.242 53.4766 114.242C51.9922 114.242 50.2669 114.151 48.3008 113.969L47.6758 110.883C49.8242 111.143 51.6536 111.273 53.1641 111.273C53.8151 111.273 54.2057 111.124 54.3359 110.824C54.4271 110.616 54.4727 110.303 54.4727 109.887V77.9141ZM67.3242 91.4492C65.5534 89.0143 63.6458 86.8008 61.6016 84.8086L63.457 82.6797C63.8737 83.0964 64.2383 83.4674 64.5508 83.793L64.7852 84.0273C66.5299 81.7487 68.099 79.3398 69.4922 76.8008L72.1289 78.3633C70.1237 81.4102 68.2357 83.9297 66.4648 85.9219C67.2982 86.8854 68.1836 88.0117 69.1211 89.3008C71.569 86.1758 73.4766 83.6237 74.8438 81.6445L77.207 83.4023C74.1081 87.6211 70.8854 91.4232 67.5391 94.8086C67.6562 94.7956 67.7669 94.7891 67.8711 94.7891C69.9284 94.6979 72.4023 94.4831 75.293 94.1445C74.8503 92.9727 74.3945 91.8984 73.9258 90.9219L76.1914 89.9258C77.3503 92.1263 78.418 94.75 79.3945 97.7969L76.8359 99.125C76.6146 98.2266 76.3477 97.2891 76.0352 96.3125C74.4727 96.5599 73.0208 96.7747 71.6797 96.957V114.809H68.8086V97.3086L68.1641 97.3672C66.0677 97.5885 64.0039 97.7578 61.9727 97.875L61.3281 95.082C61.9141 95.056 62.4674 95.0365 62.9883 95.0234L64.1211 94.9648C64.8893 94.1966 65.957 93.0247 67.3242 91.4492ZM98.0469 83.3242C98.0078 97.7513 97.5521 106.827 96.6797 110.551C96.3411 112.009 95.7747 113.012 94.9805 113.559C94.2383 114.066 93.1185 114.32 91.6211 114.32C90.1237 114.32 88.2682 114.203 86.0547 113.969L85.4102 110.844C87.5195 111.182 89.4922 111.352 91.3281 111.352C92.3698 111.352 93.0339 111.085 93.3203 110.551C93.5547 110.121 93.7956 108.871 94.043 106.801C94.5768 102.23 94.9154 96.0326 95.0586 88.207L95.0977 86.1172H83.457C82.5065 88.7083 81.2891 91.026 79.8047 93.0703L77.6172 91.0391C80.1302 87.3411 81.862 82.569 82.8125 76.7227L85.7617 77.2891C85.319 79.6719 84.8568 81.6836 84.375 83.3242H98.0469ZM61.7188 110.238C62.7344 107.322 63.4049 103.923 63.7305 100.043L66.4844 100.395C66.1979 104.952 65.5339 108.702 64.4922 111.645L61.7188 110.238ZM75.7227 109.477C75.1628 106.117 74.4466 103.09 73.5742 100.395L76.0938 99.5938C77.0833 102.068 77.9102 104.965 78.5742 108.285L75.7227 109.477ZM87.9688 103.07C86.2891 99.3073 84.3294 95.8958 82.0898 92.8359L84.4531 91.1562C86.8099 94.2552 88.8477 97.6016 90.5664 101.195L87.9688 103.07ZM117.559 78.9688C120.605 78.9688 123.333 79.763 125.742 81.3516C128.372 83.0703 130.299 85.5052 131.523 88.6562C132.357 90.8307 132.773 93.207 132.773 95.7852C132.773 99.1966 132.07 102.23 130.664 104.887C129.245 107.569 127.246 109.587 124.668 110.941C122.507 112.074 120.111 112.641 117.48 112.641C113.9 112.641 110.807 111.618 108.203 109.574C105.833 107.725 104.154 105.245 103.164 102.133C102.526 100.167 102.207 98.0508 102.207 95.7852C102.207 90.4206 103.861 86.1562 107.168 82.9922C109.967 80.3099 113.431 78.9688 117.559 78.9688ZM117.441 82.1328C115.007 82.1328 112.852 82.8815 110.977 84.3789C107.826 86.8919 106.25 90.7005 106.25 95.8047C106.25 98.6823 106.79 101.189 107.871 103.324C108.73 105.017 109.876 106.378 111.309 107.406C113.105 108.708 115.169 109.359 117.5 109.359C120.977 109.359 123.77 107.992 125.879 105.258C127.78 102.81 128.73 99.6589 128.73 95.8047C128.73 91.8333 127.728 88.5977 125.723 86.0977C123.6 83.4544 120.84 82.1328 117.441 82.1328ZM138.789 79.5938H142.461V95.1211L157.344 79.5938H162.188L148.945 93.0703L163.984 111.996H159.062L146.426 95.3164L142.461 99.1641V111.996H138.789V79.5938Z"
        fill="#333333" />
    <path
        d="M349.082 279.875V291.848H320.957V279.875H349.082ZM324.16 282.16V284.641H345.879V282.16H324.16ZM324.16 286.848V289.68H345.879V286.848H324.16ZM333.809 297.004V316.809H330.801V312.043C326.478 313.007 321.823 313.742 316.836 314.25L315.996 311.438C317.754 311.32 319.206 311.203 320.352 311.086V297.004H315.996V294.484H354.004V297.004H333.809ZM330.801 297.004H323.32V299.836H330.801V297.004ZM330.801 302.043H323.32V304.914H330.801V302.043ZM330.801 307.082H323.32V310.773C325.247 310.539 326.745 310.344 327.812 310.188L330.801 309.777V307.082ZM346.23 310.051C348.314 311.626 350.931 312.961 354.082 314.055L352.227 316.73C348.802 315.324 346.094 313.775 344.102 312.082C341.901 313.996 339.108 315.598 335.723 316.887L334.082 314.367C336.243 313.625 337.988 312.844 339.316 312.023C340.111 311.529 341.003 310.878 341.992 310.07C339.896 307.753 338.197 305.012 336.895 301.848H335V299.445H350.195L351.797 300.969C350.378 304.523 348.522 307.551 346.23 310.051ZM344.023 308.098C345.56 306.431 346.868 304.348 347.949 301.848H339.746C340.749 304.087 342.174 306.171 344.023 308.098ZM364.57 308.898C365.69 309.992 366.999 310.884 368.496 311.574C369.486 312.03 370.794 312.408 372.422 312.707C374.271 313.046 376.146 313.215 378.047 313.215H394.395C394.03 313.892 393.685 314.797 393.359 315.93H378.047C373.854 315.93 370.495 315.376 367.969 314.27C366.289 313.54 364.74 312.46 363.32 311.027L363.086 311.301C361.224 313.566 359.368 315.415 357.52 316.848L355.879 314.016C357.793 312.74 359.674 311.249 361.523 309.543V298.684H355.996V295.93H364.57V308.898ZM391.992 288.996V308.488C391.992 309.374 391.758 310.038 391.289 310.48C390.82 310.936 389.974 311.164 388.75 311.164C387.37 311.164 386.224 311.112 385.312 311.008L384.766 308.449C385.951 308.579 387.077 308.645 388.145 308.645C388.639 308.645 388.932 308.527 389.023 308.293C389.089 308.137 389.121 307.883 389.121 307.531V291.398H381.27V294.152H387.91V296.477H381.27V299.23H386.328V307.043H376.27V309.113H373.711V299.23H378.516V296.477H372.227V294.152H378.516V291.398H370.996V311.047H368.125V288.996H373.906C373.281 287.368 372.669 286.008 372.07 284.914H366.23V282.395H378.359V278.801H381.309V282.395H393.34V284.914H387.871C387.337 286.177 386.68 287.538 385.898 288.996H391.992ZM375.039 284.914C375.677 286.229 376.263 287.59 376.797 288.996H382.93C383.516 287.863 384.141 286.503 384.805 284.914H375.039ZM376.27 301.438V304.797H383.672V301.438H376.27ZM362.91 288.449C361.126 285.728 359.245 283.43 357.266 281.555L359.473 279.758C361.634 281.711 363.555 283.898 365.234 286.32L362.91 288.449ZM409.062 287.922H414.316V313.312C414.316 314.549 414.004 315.396 413.379 315.852C412.884 316.216 412.083 316.398 410.977 316.398C409.661 316.398 408.125 316.307 406.367 316.125L405.898 313.312C407.5 313.534 409.01 313.645 410.43 313.645C410.99 313.645 411.322 313.553 411.426 313.371C411.517 313.228 411.562 312.941 411.562 312.512V305.168H401.797C401.615 309.908 400.495 313.742 398.438 316.672L396.074 314.641C397.533 312.375 398.431 310.096 398.77 307.805C398.978 306.411 399.082 304.745 399.082 302.805V289.641L398.906 289.816C398.49 290.272 397.988 290.76 397.402 291.281L395.723 288.918C398.73 286.392 401.009 283.15 402.559 279.191L404.57 280.52H410.996L412.363 281.926C411.257 284.335 410.156 286.333 409.062 287.922ZM405.41 290.441H401.797V295.168H405.41V290.441ZM407.891 290.441V295.168H411.562V290.441H407.891ZM405.41 297.57H401.797V302.688H405.41V297.57ZM407.891 297.57V302.688H411.562V297.57H407.891ZM406.016 287.922C407.266 285.995 408.171 284.38 408.73 283.078H403.77C402.819 284.771 401.745 286.385 400.547 287.922H406.016ZM424.355 283.527C423.887 288.306 421.582 291.906 417.441 294.328L415.488 292.395C417.741 291.105 419.323 289.562 420.234 287.766C420.859 286.542 421.263 285.129 421.445 283.527H415.684V280.969H432.48C432.402 286.385 432.161 289.829 431.758 291.301C431.497 292.29 431.003 292.967 430.273 293.332C429.753 293.592 429.004 293.723 428.027 293.723C426.868 293.723 425.514 293.645 423.965 293.488L423.516 290.832C424.909 291.053 426.185 291.164 427.344 291.164C428.06 291.164 428.503 291.001 428.672 290.676C429.023 290.012 429.29 287.629 429.473 283.527H424.355ZM423.555 298.645V295.09H426.523V298.645H432.559V301.242H426.523V306.047H433.926V308.723H426.523V316.809H423.555V308.723H415.352V306.047H423.555V301.242H419.59C419.108 302.479 418.483 303.723 417.715 304.973L415.391 303.332C416.693 301.288 417.656 298.632 418.281 295.363L420.957 295.734C420.788 296.828 420.599 297.798 420.391 298.645H423.555Z"
        fill="#333333" />
    <path
        d="M124.667 133C124.667 135.946 127.054 138.333 130 138.333C132.946 138.333 135.333 135.946 135.333 133C135.333 130.054 132.946 127.667 130 127.667C127.054 127.667 124.667 130.054 124.667 133ZM177 175L177.865 175.501L178.262 174.817L177.687 174.274L177 175ZM144 232L144.294 232.956L144.669 232.84L144.865 232.501L144 232ZM105 244L104.056 244.33L104.374 245.239L105.294 244.956L105 244ZM84 184L83.2 183.4L82.8799 183.827L83.0561 184.33L84 184ZM105 156L105.942 155.664L105.316 153.912L104.2 155.4L105 156ZM114.572 184.904C115.071 185.14 115.667 184.927 115.904 184.428L119.757 176.294C119.993 175.795 119.78 175.199 119.281 174.963C118.782 174.726 118.185 174.939 117.949 175.438L114.524 182.668L107.294 179.243C106.795 179.007 106.199 179.22 105.963 179.719C105.726 180.218 105.939 180.815 106.438 181.051L114.572 184.904ZM129.427 133.819C133.363 136.575 141.978 144.109 151.204 152.466C160.405 160.802 170.15 169.897 176.313 175.726L177.687 174.274C171.517 168.437 161.761 159.332 152.546 150.984C143.356 142.658 134.637 135.025 130.573 132.181L129.427 133.819ZM176.135 174.499L143.135 231.499L144.865 232.501L177.865 175.501L176.135 174.499ZM143.706 231.044L104.706 243.044L105.294 244.956L144.294 232.956L143.706 231.044ZM105.944 243.67L84.9439 183.67L83.0561 184.33L104.056 244.33L105.944 243.67ZM84.8 184.6L105.8 156.6L104.2 155.4L83.2 183.4L84.8 184.6ZM104.058 156.336L114.058 184.336L115.942 183.664L105.942 155.664L104.058 156.336Z"
        fill="#333333" />
    <path d="M143 231L179 277" stroke="#D50000" stroke-width="2" />
    <line x1="179.154" y1="270.675" x2="176.802" y2="281.741" stroke="#D50000" stroke-width="2" />
    <line x1="172.675" y1="274.846" x2="183.741" y2="277.198" stroke="#D50000" stroke-width="2" />
    <path
        d="M284 308.236L286.417 315.674L286.641 316.365H287.368H295.188L288.861 320.961L288.273 321.389L288.498 322.08L290.915 329.517L284.588 324.92L284 324.493L283.412 324.92L277.085 329.517L279.502 322.08L279.727 321.389L279.139 320.961L272.812 316.365H280.632H281.359L281.583 315.674L284 308.236Z"
        fill="#FFE76A" stroke="#F2D128" stroke-width="2" />
    <path
        d="M178.062 9.92188H183.316V35.3125C183.316 36.5495 183.004 37.3958 182.379 37.8516C181.884 38.2161 181.083 38.3984 179.977 38.3984C178.661 38.3984 177.125 38.3073 175.367 38.125L174.898 35.3125C176.5 35.5339 178.01 35.6445 179.43 35.6445C179.99 35.6445 180.322 35.5534 180.426 35.3711C180.517 35.2279 180.562 34.9414 180.562 34.5117V27.168H170.797C170.615 31.9076 169.495 35.7422 167.438 38.6719L165.074 36.6406C166.533 34.375 167.431 32.0964 167.77 29.8047C167.978 28.4115 168.082 26.7448 168.082 24.8047V11.6406L167.906 11.8164C167.49 12.2721 166.988 12.7604 166.402 13.2812L164.723 10.918C167.73 8.39193 170.009 5.14974 171.559 1.19141L173.57 2.51953H179.996L181.363 3.92578C180.257 6.33464 179.156 8.33333 178.062 9.92188ZM174.41 12.4414H170.797V17.168H174.41V12.4414ZM176.891 12.4414V17.168H180.562V12.4414H176.891ZM174.41 19.5703H170.797V24.6875H174.41V19.5703ZM176.891 19.5703V24.6875H180.562V19.5703H176.891ZM175.016 9.92188C176.266 7.99479 177.171 6.38021 177.73 5.07812H172.77C171.819 6.77083 170.745 8.38542 169.547 9.92188H175.016ZM193.355 5.52734C192.887 10.306 190.582 13.9062 186.441 16.3281L184.488 14.3945C186.741 13.1055 188.323 11.5625 189.234 9.76562C189.859 8.54167 190.263 7.12891 190.445 5.52734H184.684V2.96875H201.48C201.402 8.38542 201.161 11.8294 200.758 13.3008C200.497 14.2904 200.003 14.9674 199.273 15.332C198.753 15.5924 198.004 15.7227 197.027 15.7227C195.868 15.7227 194.514 15.6445 192.965 15.4883L192.516 12.832C193.909 13.0534 195.185 13.1641 196.344 13.1641C197.06 13.1641 197.503 13.0013 197.672 12.6758C198.023 12.0117 198.29 9.62891 198.473 5.52734H193.355ZM192.555 20.6445V17.0898H195.523V20.6445H201.559V23.2422H195.523V28.0469H202.926V30.7227H195.523V38.8086H192.555V30.7227H184.352V28.0469H192.555V23.2422H188.59C188.108 24.4792 187.483 25.7227 186.715 26.9727L184.391 25.332C185.693 23.2878 186.656 20.6315 187.281 17.3633L189.957 17.7344C189.788 18.8281 189.599 19.7982 189.391 20.6445H192.555ZM225.445 16.7188V23.6523H238.57V26.3672H225.445V34.3359H242.398V37.1289H205.562V34.3359H222.281V26.3672H209.449V23.6523H222.281V16.7188H213.277V14.7852C211.35 16.1393 209.189 17.4414 206.793 18.6914L204.762 16.1133C208.29 14.4857 211.305 12.6432 213.805 10.5859C216.93 8.02083 219.651 4.75911 221.969 0.800781H225.367C228.049 4.26432 230.842 7.13542 233.746 9.41406C236.389 11.4714 239.566 13.3724 243.277 15.1172L241.402 17.832C238.993 16.5951 236.832 15.3255 234.918 14.0234V16.7188H225.445ZM234.82 13.9648C230.628 11.0742 226.956 7.59115 223.805 3.51562C221.448 7.5 218.31 10.9831 214.391 13.9648H234.82ZM271.09 11.9922C272.978 16.276 275.087 19.8958 277.418 22.8516C279.124 25 281.077 26.9987 283.277 28.8477L281.52 31.875C276.246 27.0182 272.418 21.4583 270.035 15.1953V28.1641H275.992V30.957H270.035V38.7891H266.988V30.957H261.461V28.1641H266.988V15.5078C264.553 22.487 260.927 28.1706 256.109 32.5586L254.059 29.8438C258.967 26.0286 262.926 20.0781 265.934 11.9922H255.309V9.19922H266.988V0.800781H270.035V9.19922H282.359V11.9922H271.09ZM253.277 10.2734V38.8086H250.191V16.6602C249.124 18.6133 247.802 20.6315 246.227 22.7148L244.801 19.6875C247.027 16.5625 248.896 13.1576 250.406 9.47266C251.422 6.98568 252.418 4.00391 253.395 0.527344L256.402 1.36719C255.465 4.53125 254.423 7.5 253.277 10.2734ZM306.285 33.2422C309.397 32.4479 311.93 31.2174 313.883 29.5508C316.5 27.3242 317.809 24.0625 317.809 19.7656C317.809 16.9401 317.132 14.4531 315.777 12.3047C313.928 9.33594 310.882 7.53906 306.637 6.91406C305.738 15.4948 303.922 22.4349 301.188 27.7344C300.029 29.987 298.896 31.6081 297.789 32.5977C296.604 33.6523 295.367 34.1797 294.078 34.1797C292.346 34.1797 290.784 33.3333 289.391 31.6406C288.635 30.7422 288.017 29.6094 287.535 28.2422C286.858 26.3672 286.52 24.3424 286.52 22.168C286.52 18.431 287.568 15.0326 289.664 11.9727C291.734 8.92578 294.397 6.75781 297.652 5.46875C299.866 4.59635 302.249 4.16016 304.801 4.16016C308.759 4.16016 312.164 5.14974 315.016 7.12891C317.49 8.86068 319.241 11.1654 320.27 14.043C320.895 15.7878 321.207 17.6628 321.207 19.668C321.207 28.1836 316.793 33.6263 307.965 35.9961L306.285 33.2422ZM303.688 6.83594C300.654 7.01823 298.069 7.92318 295.934 9.55078C292.691 12.0117 290.719 15.1953 290.016 19.1016C289.833 20.1042 289.742 21.0938 289.742 22.0703C289.742 25.1432 290.413 27.5456 291.754 29.2773C292.535 30.2799 293.342 30.7812 294.176 30.7812C295.126 30.7812 296.077 30.0716 297.027 28.6523C298.577 26.3216 299.97 23.1771 301.207 19.2188C302.249 15.8854 303.076 11.7578 303.688 6.83594ZM342.32 22.2461H330.035V9.86328C329.033 10.918 328.017 11.849 326.988 12.6562L325.035 10.332C328.603 7.53255 331.259 4.30339 333.004 0.644531L336.07 1.28906C335.432 2.51302 334.768 3.65885 334.078 4.72656H343.16C343.863 3.5026 344.508 2.19401 345.094 0.800781L348.414 1.36719C347.685 2.64323 346.982 3.76302 346.305 4.72656H359.684V7.05078H346.168V9.84375H357.73V12.0508H346.168V14.8438H357.73V17.0898H346.168V19.9219H360.641V22.2461H345.367V25.4102H363.004V27.9297H348.941C352.652 30.5859 357.418 32.7604 363.238 34.4531L361.324 37.2852C357.132 35.7747 353.668 34.1536 350.934 32.4219C348.889 31.1198 347.034 29.6745 345.367 28.0859V38.8086H342.32V28.3789C338.167 32.5586 332.952 35.7161 326.676 37.8516L324.879 35.2539C330.699 33.5091 335.465 31.0677 339.176 27.9297H324.996V25.4102H342.32V22.2461ZM333.121 7.05078V9.84375H343.16V7.05078H333.121ZM333.121 12.0508V14.8438H343.16V12.0508H333.121ZM333.121 17.0898V19.9219H343.16V17.0898H333.121ZM374.977 13.3594H393.609V16.0742H374.918V13.3984C372.6 15.1953 369.879 16.862 366.754 18.3984L364.762 15.7617C368.889 13.9258 372.392 11.7122 375.27 9.12109C377.835 6.82943 380.055 4.05599 381.93 0.800781H385.484C388.44 4.78516 391.76 8.04688 395.445 10.5859C397.594 12.0573 400.204 13.5156 403.277 14.9609L401.402 17.793C396.78 15.4102 392.893 12.8125 389.742 10C387.711 8.17708 385.732 6.04167 383.805 3.59375C381.617 7.21354 378.674 10.4688 374.977 13.3594ZM397.164 21.4062V38.8086H393.922V36.2891H374.449V38.8086H371.207V21.4062H397.164ZM374.449 24.1211V33.5352H393.922V24.1211H374.449Z"
        fill="#333333" />
</svg>